<svg xmlns:dc="http://purl.org/dc/elements/1.1/"
   xmlns:cc="http://creativecommons.org/ns#" xmlns:rdf="http://www.w3.org/1999/02/22-rdf-syntax-ns#"
   xmlns:svg="http://www.w3.org/2000/svg" xmlns="http://www.w3.org/2000/svg"
   viewBox="0 0 103 134" xml:space="preserve" version="1.1"
   fill="currentColor">
  <g transform="matrix(1.3333333,0,0,-1.3333333,0,133.93333)">
    <g transform="scale(0.1)">
      <path style="fill-opacity:1;fill-rule:nonzero;stroke:none" d="M 358.852,196.867 C 203.512,211.934 82.0703,342.797 82.0703,502.09 c 0,154.078 113.6177,281.551 261.6287,303.375 -0.129,10.199 0.094,21.023 0.801,32.398 1.199,19.313 3.59,37.012 6.543,52.864 l -18.008,-39.231 c -24.387,-3.859 -47.922,-10.25 -70.387,-18.82 l -35.531,25.199 -65.422,-37.77 4.059,-43.371 C 146.887,761.402 129.633,744.18 114.273,725.332 L 70.9766,729.383 33.207,663.965 58.2695,628.625 C 49.6328,606.117 43.1992,582.523 39.3008,558.074 L 0,540.035 v -0.351 -75.188 -0.351 l 39.2305,-18.008 c 3.8633,-24.391 10.25,-47.926 18.8242,-70.387 l -25.2031,-35.531 37.7734,-65.422 43.367,4.058 c 15.332,-18.867 32.555,-36.125 51.403,-51.48 l -4.051,-43.301 65.422,-37.769 35.336,25.062 c 22.628,-8.679 46.347,-15.144 70.933,-19.035 l 18.008,-39.234 c 3.047,16.644 5.5,35 6.797,54.879 0.656,10.027 0.969,19.668 1.012,28.89" />
      <path style="fill-opacity:1;fill-rule:nonzero;stroke:none" d="m 426.586,113.098 18.004,39.234 c 24.625,3.898 48.375,10.375 71.027,19.074 l 34.895,-24.746 65.418,37.77 -3.996,42.711 c 19.058,15.496 36.464,32.933 51.937,52.011 l 42.781,-4.004 37.77,65.422 -24.887,35.086 c 8.594,22.489 14.996,46.059 18.86,70.481 l 39.234,18.008 v 0.351 75.188 0.351 l -39.301,18.039 c -3.902,24.485 -10.351,48.106 -19.008,70.645 l 24.746,34.89 -37.769,65.422 -42.711,-3.996 c -15.496,19.059 -32.934,36.465 -52.012,51.934 l 4.004,42.781 -65.422,37.77 -35.086,-24.883 c -22.488,8.593 -46.054,14.992 -70.48,18.859 l -18.004,39.231 c -2.176,-14.559 -4,-30.122 -5.273,-46.594 -0.993,-12.832 -1.563,-25.149 -1.809,-36.895 154.992,-15.402 276.055,-146.101 276.055,-305.148 0,-153.867 -113.313,-281.207 -261.032,-303.289 0.075,-12.02 -0.339,-25.039 -1.492,-38.91 -1.418,-17.063 -3.726,-32.723 -6.449,-46.793" />
      <path style="fill-opacity:1;fill-rule:nonzero;stroke:none" d="m 358.113,607.844 57.176,-56.453 c -1.398,40.382 -2.738,56.109 -3.875,95.015 h -55.262 c 0.61,-20.679 1.266,-17.383 1.961,-38.562" />
      <path style="fill-opacity:1;fill-rule:nonzero;stroke:none" d="m 368.055,502.168 -7.442,7.75 c 0.387,-11.238 0.774,-3.074 1.164,-14.332 l 6.278,6.582" />
      <path style="fill-opacity:1;fill-rule:nonzero;stroke:none" d="M 417.617,455.246 364.105,402.41 c 0.762,-23.094 1.481,-21.785 2.141,-44.48 h 55.313 c -1.164,39.968 -2.528,56.468 -3.942,97.316" />
      <path style="fill-opacity:1;fill-rule:nonzero;stroke:none" d="m 354.855,713.125 h 55.282 c -0.442,17.906 -0.832,25.859 -1.133,43.051 -1.609,92.57 2.898,136.058 19.976,163.594 9.352,17.593 21.504,25.429 35.551,25.671 7.016,0.125 16.711,-1.886 23.766,-3.941 l 8.668,57.082 c -8.836,3.118 -22.059,6.148 -34.344,5.938 -26.328,-0.46 -52.449,-12.899 -71.297,-39.375 -30,-41.918 -39.64,-93.403 -37.726,-203.395 0.328,-18.98 0.761,-28.777 1.257,-48.625" />
      <path style="fill-opacity:1;fill-rule:nonzero;stroke:none" d="m 422.844,291.055 h -55.313 c 0.5,-20.153 0.938,-30.332 1.278,-49.782 1.761,-101.289 -6.45,-133.945 -20.918,-160.3394 -8.512,-15.4063 -21.563,-22.1641 -33.848,-22.3789 -7.016,-0.1211 -16.711,1.8867 -23.766,3.9414 L 280.664,9.15625 c 7.992,-5.30469 22.113,-9.417969 37.91,-9.1367187 34.231,0.5898437 58.52,17.3593687 75.524,49.2460687 20.437,36.3008 31.894,84.0584 29.98,194.0544 -0.328,18.793 -0.75,28.289 -1.234,47.735" />
      <path style="fill-opacity:1;fill-rule:nonzero;stroke:none" d="M 450.398,501.992 294.492,348.051 h 151.055 c 7.723,0 28.558,1.59 34.969,4.172 6.808,2.746 11.863,6.101 17.261,11.519 5.817,5.828 10.594,11.426 13.989,19.145 3.464,7.875 9.035,21.972 9.308,30.832 L 551.102,413.48 538.516,300.582 H 226.699 v 47.469 L 377.758,501.992 226.523,655.934 v 47.308 h 311.993 l 12.586,-113.133 h -30.028 c -1.398,4.387 -8.367,30.356 -20.168,44.121 -11.801,13.77 -25.383,17.477 -35.14,19.52 -4.371,0.871 -10.055,1.453 -17.047,1.746 -6.992,0.289 -14.133,0.438 -21.418,0.438 H 294.492 L 450.398,501.992" />
    </g>
  </g>
</svg>
