<svg
   fill="currentColor"
   viewBox="0 0 1024 1024" version="1.1" xmlns="http://www.w3.org/2000/svg">
   <path
      d="M990.992 629.504c0 0-49.456-84.768-314.592-18.096-81.936-40.368-164.752-101.168-213.632-191.52-0.016 0.032-0.032 0.064-0.048 0.096-0.56-1.088-1.152-2.288 0.048-0.096 44.736-103.584 70.16-202.864 41.824-262.48 0 0-60.48-165.664-114.448-14.304 0 0-43.072 137.76 35.152 286.512-40.624 83.44-104.976 191.36-206.832 328.656 0 0-56.64 15.2-128.752 57.216 0 0-144.704 89.04-28.608 128.752 0 0 71.744 14.384 171.664-128.752 0 0 127.024-176.336 211.088-353.872 0.08 0.08 0.16 0.144 0.256 0.224 36.752 56.992 92.816 114.24 177.264 164.768-82.128 24.448-181.664 61.712-302.768 117.344 0 0 200.416-49.952 373.056-79.936 0.192 0.016 0.4 0.032 0.592 0.032 52.496 24.56 113.408 46.784 184.288 65.6C876.544 729.648 1064.384 749.664 990.992 629.504zM104.016 901.328c0 0-34.704-6.384 0-42.912 0 0 41.776-34.96 100.144-42.912C204.16 815.488 169.072 897.648 104.016 901.328zM446.112 384.352c-16.8-41.376-26.976-88.048-27.36-141.104 0 0 9.248-204.016 71.536-57.216C490.272 186.016 507.872 241.024 446.112 384.352 444.496 387.744 445.776 385.104 446.112 384.352zM919.456 686.736c0 0-63.312-7.872-144.784-35.136-0.32-0.16-0.64-0.304-0.976-0.464C892.768 634.848 974.4 636.576 919.456 686.736z" />
</svg>
